<svg xmlns="http://www.w3.org/2000/svg" viewBox="0 0 2000 2000" style="display: block; width: 100%; height: 100%;">



<path d="M1625.76 0L373.08899 0C363.56299 4.8070502 351.33701 6.90763 341.28699 11.4905C302.93301 29.205099 273.25299 61.516998 258.85199 101.234C254.36501 113.549 251.48801 126.392 250.291 139.444C249.20966 152.19603 249.32939 168.57112 249.43568 183.10803C249.46455 187.05569 249.49243 190.86781 249.495 194.435L249.554 285.26599L249.508 420.32401C249.50542 427.11893 249.47076 434.03156 249.43585 440.99811C249.33582 460.96103 249.23355 481.3667 249.877 500.71399C137.70799 505.40701 27.6765 584.61401 4.9075699 696.97601C3.8554299 702.16803 1.69174 715.36499 0 719.38501L0 1260.54C3.06704 1268.73 3.76614 1286.77 4.9961801 1296.13C38.9883 1554.77 248.073 1760.1801 472.09299 1872.54C579.08502 1926.6 693.57501 1964.3199 811.74799 1984.4399C835.52301 1988.58 859.45001 1991.8 883.47601 1994.08C893.44299 1995.04 932.54401 1997.97 939.22302 2000L1062.67 2000C1070.52 1997.4399 1107 1995.25 1117.7 1994.13C1145.9399 1991.2 1174.05 1987.21 1201.99 1982.1801C1341.72 1956.98 1475.77 1906.83 1597.72 1834.13C1766.1801 1732.65 1914.49 1582.42 1974.23 1391.24C1982.7 1364.64 1989.0601 1337.41 1993.25 1309.8101C1995.38 1295.36 1996.37 1273.96 2000 1260.61L2000 720.19098C1996.5601 709.461 1994.78 694.54797 1991.8 682.76898C1966.6 582.96997 1853.0699 501.41699 1750.11 500.68201C1750.8967 492.15662 1750.6725 475.51279 1750.4948 462.3121C1750.4307 457.55914 1750.3727 453.25256 1750.37 449.93201L1750.3199 348.858L1750.37 214.847C1750.3728 209.04076 1750.4382 202.62852 1750.5063 195.95262C1750.6862 178.34053 1750.8846 158.89325 1750 143.896C1749.35 131.578 1747.1801 119.387 1743.54 107.602C1729.7 64.683998 1698.4 29.593901 1657.34 10.963C1647.8101 6.6380601 1633.9399 4.6115599 1625.76 0ZM688.71698 260.30499C683.46198 207.41499 720.68103 162.342 773.54901 157.39C784.43268 155.76923 801.96838 156.23596 817.05011 156.63737C822.84015 156.79149 828.26855 156.93596 832.82001 156.94901L925.40997 156.985L1226.14 156.95L1418.96 156.923L1475.49 156.931C1477.3243 156.9317 1479.3436 156.92154 1481.4811 156.9108C1491.5673 156.86006 1504.2844 156.79611 1512.61 157.797C1531.3 159.979 1548.79 168.088 1562.53 180.937C1581.41 198.181 1592.51 222.33501 1593.29 247.894C1594.79 295.83701 1555.58 341.05499 1506.97 342.28799C1499.6504 343.48788 1488.6345 343.28854 1479.483 343.12296C1476.782 343.0741 1474.2433 343.02817 1472.01 343.022L1410.36 342.91L1199.33 342.93301L910.091 342.98099L820.59998 342.979C815.43652 342.9783 810.40137 343.06964 805.47601 343.159C775.36084 343.70535 749.34766 344.17731 723.18903 323.07901C703.76501 307.60699 691.349 284.99799 688.71698 260.30499ZM407.18399 258.74301C402.388 207.545 439.96701 162.13699 491.159 157.27499C542.44299 152.40401 587.95099 190.067 592.75702 241.358C597.56201 292.64899 559.841 338.108 508.54401 342.84799C457.33899 347.578 411.98001 309.94101 407.18399 258.74301ZM712.52502 406.08099C731.38702 385.194 753.80701 376.957 781.24701 375.50299L1282.27 375.354L1432.1899 375.31299C1436.5314 375.31238 1441.7852 375.26355 1447.5586 375.20987C1469.8578 375.00262 1499.9081 374.7233 1515.08 376.87201C1532.62 379.36801 1548.99 387.125 1562.04 399.11899C1580.73 416.05099 1591.91 439.73401 1593.09 464.927C1595.87 519.328 1553.38 559.479 1500.28 561.88898L999.62402 561.98901L844.74701 562.00098C839.26105 562.00391 833.57336 562.03906 827.77679 562.07483C807.62903 562.1994 786.16547 562.33203 767.28302 561.14697C752.38599 560.21198 731.461 549.20697 720.06702 539.242C701.12701 522.87598 689.66498 499.505 688.31897 474.509C686.85498 449.37201 695.58099 424.70599 712.52502 406.08099ZM407.694 481.70801C400.578 430.905 435.85599 383.90201 486.625 376.54501C537.73499 369.13901 585.12299 404.70599 592.28802 455.85101C599.45203 506.996 563.66101 554.21399 512.48199 561.13599C461.646 568.01202 414.811 532.51202 407.694 481.70801ZM768.65399 779.68402C657.63599 763.95099 663.66901 600.97998 777.68298 594.44202C810.91351 593.28278 847.89337 593.6178 883.71313 593.94232C900.08185 594.09058 916.20831 594.23669 931.62402 594.237L1229.86 594.22498L1415.98 594.17603L1473.04 594.14801C1475.0229 594.14783 1477.1815 594.13586 1479.4485 594.12329C1489.3459 594.06842 1501.3088 594.00214 1509.73 594.854C1525.34 596.414 1540.29 601.97803 1553.13 611.005C1573.5 625.11401 1587.35 646.81897 1591.5601 671.24103C1597.8199 706.45203 1583.6801 742.57202 1554.53 763.039C1538.71 774.15002 1525.89 777.70001 1507.25 780.85199C1464.6527 781.35992 1421.6165 781.26666 1378.7429 781.17383C1361.5999 781.13666 1344.4827 781.09961 1327.4301 781.10101L1009.13 781.10901L852.54401 781.104C846.41663 781.104 839.52417 781.22424 832.26794 781.35083C810.77838 781.72571 786.09863 782.15625 768.65399 779.68402ZM406.987 693.00098C404.013 641.59003 443.311 597.51599 494.72601 594.599C546.06 591.68597 590.04999 630.909 593.01898 682.24103C595.98798 733.57202 556.81403 777.60498 505.48599 780.63098C454.078 783.66199 409.961 744.41302 406.987 693.00098ZM252.121 801.21698C253.532 835.20398 276.26501 872.68201 300.93399 895.24103C324.59299 916.854 354.384 930.58197 386.186 934.52399C400.05017 936.34253 418.1629 936.20679 433.98651 936.0882C437.73218 936.06012 441.34958 936.03302 444.75201 936.03302L537.48798 935.99402L845.08502 935.98102L1349.89 935.98401L1515.0601 936.00403C1522.8232 936.00433 1531.3004 936.08636 1540.0636 936.17114C1561.6091 936.3797 1584.884 936.60492 1603.53 935.67297C1644.47 933.354 1682.8 914.87201 1710.11 884.29102C1734.91 856.82599 1743.4301 831.99902 1749.47 796.68298C1750.2136 808.49109 1749.9716 822.06519 1749.735 835.33862C1749.5992 842.94983 1749.4653 850.46216 1749.52 857.48602L1749.4399 1026.4399L1749.49 1159.58C1749.4941 1165.1304 1749.5295 1170.9115 1749.5658 1176.822C1749.7023 1199.0991 1749.85 1223.2134 1748.38 1243.73C1742.16 1330.38 1696.9 1414.92 1639.33 1479.3199C1493.83 1642.11 1261.63 1736.25 1045.9 1748.1801C824.87402 1760.41 583.73499 1682.08 416.74799 1535.5601C332.26199 1461.42 257.45499 1354.4399 250.981 1239.4301C249.47516 1212.6667 249.77205 1178.7822 250.04321 1147.8354C250.14317 1136.4263 250.23965 1125.4165 250.241 1115.3101L250.255 919.56598C250.25821 909.18665 250.30525 898.80457 250.35228 888.42206C250.48102 860.00464 250.60977 831.58423 249.84 803.21002L252.121 801.21698Z" fill="#4B5666" fill-rule="nonzero"/><path d="M 1365.3 968.36 C 1395.7 966.89 1425.86 978.593 1449.21 997.696 C 1474.8 1018.67 1490.83 1049.08 1493.68 1082.04 C 1496.8 1115.99 1486.22 1149.78 1464.3 1175.89 C 1458.16 1183.08 1449.49 1191.27 1442.82 1198.45 L 1384.17 1261.29 L 1161.71 1499.42 L 1045.82 1623.8 C 1006.6 1665.78 977.75 1709.57 915.068 1713.67 C 891.717 1715.03 868.445 1709.9 847.832 1698.84 C 827.495 1687.75 788.517 1651.03 769.046 1633.95 L 631.478 1512.76 C 601.27 1483.96 564.913 1456.73 535.136 1427.16 C 511.078 1403.27 498.995 1370.96 499.796 1336.98 C 500.394 1303.32 514.643 1271.34 539.274 1248.39 C 562.403 1226.63 595.977 1213.16 627.746 1214.2 C 649.105 1214.99 669.93 1221.1 688.339 1231.96 C 703.946 1241.2 722.905 1259 736.931 1271.41 L 797.677 1325.14 L 862.771 1382.35 C 873.158 1391.51 889.211 1404.86 898.406 1414.62 C 899.594 1413.13 900.807 1411.67 902.046 1410.23 C 922.709 1386.53 946.704 1362.32 968.241 1339.12 L 1138.83 1156.48 L 1235.78 1052.56 C 1278.28 1007.07 1298.4 973.339 1365.3 968.36 z" fill="#4B5666" fill-rule="nonzero"/></svg>
